<svg width="15" height="12" viewBox="0 0 13 14" fill="none" xmlns="http://www.w3.org/2000/svg">
<path d="M0.825195 13.8457C0.483398 13.8457 0.196289 13.5586 0.196289 13.2168V1.86914C0.196289 1.24707 0.49707 0.891602 0.975586 0.672852C1.5293 0.419922 1.99414 0.296875 3.0332 0.296875C5.52148 0.296875 7.20996 1.54102 9.58887 1.54102C10.6895 1.54102 11.3047 1.27441 11.6943 1.27441C12.1523 1.27441 12.4941 1.55469 12.4941 1.99219V8.82129C12.4941 9.4502 12.207 9.84668 11.7217 10.0654C11.1885 10.3115 10.7168 10.4414 9.66406 10.4414C7.25781 10.4414 5.59668 9.19727 3.10156 9.19727C2.21973 9.19727 1.63867 9.40918 1.4541 9.47754V13.2168C1.4541 13.5654 1.16699 13.8457 0.825195 13.8457ZM1.48145 6.2168C1.59766 6.01855 2.11035 5.75195 3.05371 5.75195C3.40234 5.75195 3.61426 5.77246 3.87402 5.7998V7.95996C4.79004 8.04199 5.58984 8.26758 6.3623 8.5V6.40137C7.20312 6.66797 7.95508 6.8457 8.85059 6.95508V9.11523C9.11035 9.14258 9.37012 9.16309 9.63672 9.16309C10.5801 9.16309 11.0996 8.89648 11.2158 8.69824V6.79785C10.8057 6.91406 10.2793 6.98926 9.60938 6.98926C9.36328 6.98926 9.11719 6.98242 8.85059 6.95508V4.75391C9.11035 4.77441 9.35645 4.78809 9.56836 4.78809C10.293 4.78809 10.8877 4.68555 11.2158 4.59668V2.61426C10.792 2.73047 10.2383 2.80566 9.56836 2.80566C9.32227 2.80566 9.08301 2.79199 8.85059 2.76465V4.75391C7.98926 4.67188 7.17578 4.45312 6.3623 4.2002V2.21777C5.54883 1.97168 4.75586 1.71875 3.87402 1.61621V3.60547C3.60742 3.57129 3.26562 3.55078 3.05371 3.55078C2.11719 3.55078 1.59766 3.82422 1.48145 4.02246V6.2168ZM3.87402 5.7998V3.60547C4.79004 3.70801 5.53516 3.9541 6.3623 4.2002V6.40137C5.48047 6.1416 4.79004 5.91602 3.87402 5.7998Z" fill="#DDDDDD"/>
</svg>
