<svg xmlns="http://www.w3.org/2000/svg" width="16" height="16" viewBox="0 0 16 13.5" fill="none">
<path d="M11.1166 8.00004H10.4447H5.55517H4.88325C4.73738 8.00004 4.59749 8.05904 4.49434 8.16406C4.3912 8.26908 4.33325 8.41152 4.33325 8.56004V12.1067C4.33325 12.1802 4.34748 12.2531 4.37512 12.321C4.40276 12.389 4.44327 12.4507 4.49434 12.5027C4.54542 12.5547 4.60605 12.5959 4.67278 12.6241C4.73951 12.6522 4.81103 12.6667 4.88325 12.6667H11.1166C11.1888 12.6667 11.2603 12.6522 11.3271 12.6241C11.3938 12.5959 11.4544 12.5547 11.5055 12.5027C11.5566 12.4507 11.5971 12.389 11.6247 12.321C11.6524 12.2531 11.6666 12.1802 11.6666 12.1067V8.56004C11.6666 8.41152 11.6086 8.26908 11.5055 8.16406C11.4023 8.05904 11.2625 8.00004 11.1166 8.00004Z" fill="#CCCCCC"/>
<path d="M10.4447 8.00004H11.1166C11.2625 8.00004 11.4023 8.05904 11.5055 8.16406C11.6086 8.26908 11.6666 8.41152 11.6666 8.56004V12.1067C11.6666 12.1802 11.6524 12.2531 11.6247 12.321C11.5971 12.389 11.5566 12.4507 11.5055 12.5027C11.4544 12.5547 11.3938 12.5959 11.3271 12.6241C11.2603 12.6522 11.1888 12.6667 11.1166 12.6667H4.88325C4.81103 12.6667 4.73951 12.6522 4.67278 12.6241C4.60605 12.5959 4.54542 12.5547 4.49434 12.5027C4.44327 12.4507 4.40276 12.389 4.37512 12.321C4.34748 12.2531 4.33325 12.1802 4.33325 12.1067V8.56004C4.33325 8.41152 4.3912 8.26908 4.49434 8.16406C4.59749 8.05904 4.73738 8.00004 4.88325 8.00004H5.55517M10.4447 8.00004V5.66671C10.4447 4.88924 9.95517 3.33337 7.99992 3.33337C6.04467 3.33337 5.55517 4.88924 5.55517 5.66671V8.00004M10.4447 8.00004H5.55517" stroke="#CCCCCC" stroke-width="2" stroke-linecap="round" stroke-linejoin="round"/>
</svg>
